<?xml version="1.0" standalone="no"?>
<!DOCTYPE svg PUBLIC "-//W3C//DTD SVG 20010904//EN"
 "http://www.w3.org/TR/2001/REC-SVG-20010904/DTD/svg10.dtd">
<svg version="1.0" xmlns="http://www.w3.org/2000/svg"
 width="500.000000pt" height="500.000000pt" viewBox="0 0 500.000000 500.000000"
 preserveAspectRatio="xMidYMid meet">
<metadata>
Created by potrace 1.16, written by Peter Selinger 2001-2019
</metadata>
<g transform="translate(0.000000,500.000000) scale(0.100000,-0.100000)"
fill="#000000" stroke="none">
<path d="M1387 4333 c-4 -3 -7 -113 -7 -243 l0 -236 -47 -13 c-96 -25 -183
-148 -183 -257 0 -105 77 -216 176 -253 l49 -19 3 -696 2 -696 45 0 45 0 2
696 3 696 49 19 c100 37 176 148 176 254 0 106 -76 217 -176 254 l-49 19 -3
191 -2 191 905 0 905 0 0 -1790 0 -1790 -1350 0 -1350 0 0 -155 0 -155 1940 0
1940 0 0 155 0 155 -480 0 -480 0 0 1840 0 1840 -1053 0 c-580 0 -1057 -3
-1060 -7z m144 -551 c42 -21 62 -40 87 -82 30 -50 33 -61 30 -121 -5 -91 -42
-152 -117 -191 -112 -59 -235 -25 -298 82 -118 197 94 419 298 312z"/>
</g>
</svg>
