<?xml version="1.0" standalone="no"?>
<!DOCTYPE svg PUBLIC "-//W3C//DTD SVG 20010904//EN"
 "http://www.w3.org/TR/2001/REC-SVG-20010904/DTD/svg10.dtd">
<svg version="1.0" xmlns="http://www.w3.org/2000/svg"
 width="500.000000pt" height="500.000000pt" viewBox="0 0 500.000000 500.000000"
 preserveAspectRatio="xMidYMid meet">
<metadata>
Created by potrace 1.16, written by Peter Selinger 2001-2019
</metadata>
<g transform="translate(0.000000,500.000000) scale(0.100000,-0.100000)"
fill="#000000" stroke="none">
<path d="M1387 4333 c-4 -3 -7 -113 -7 -243 l0 -236 -47 -13 c-96 -25 -183
-148 -183 -257 0 -105 77 -216 176 -253 l49 -19 3 -186 2 -185 -237 116 c-553
269 -524 256 -541 240 -8 -9 -12 -21 -10 -29 3 -7 182 -98 397 -203 l391 -190
0 -450 0 -450 -396 -180 c-218 -99 -399 -186 -402 -193 -2 -8 2 -20 11 -29 13
-14 56 4 411 166 218 100 408 181 421 181 13 0 191 -82 396 -181 334 -163 373
-180 386 -166 9 9 13 21 11 29 -3 7 -173 94 -376 193 l-371 180 0 450 -1 450
406 185 c224 102 409 191 412 198 2 8 -2 20 -11 29 -13 14 -49 -1 -348 -137
-184 -84 -362 -166 -397 -181 l-62 -28 2 185 3 186 49 19 c100 37 176 148 176
254 0 106 -76 217 -176 254 l-49 19 -3 191 -2 191 905 0 905 0 0 -1790 0
-1790 -1350 0 -1350 0 0 -155 0 -155 1940 0 1940 0 0 155 0 155 -480 0 -480 0
0 1840 0 1840 -1053 0 c-580 0 -1057 -3 -1060 -7z m144 -551 c42 -21 62 -40
87 -82 30 -50 33 -61 30 -121 -5 -91 -42 -152 -117 -191 -200 -105 -408 103
-303 303 58 112 188 151 303 91z"/>
<path d="M440 1305 c0 -3 23 -45 50 -95 48 -86 50 -94 50 -165 0 -68 2 -75 20
-75 18 0 20 7 20 71 0 67 2 74 55 164 30 51 55 96 55 99 0 3 -9 6 -20 6 -15 0
-30 -20 -60 -80 -22 -44 -42 -80 -45 -80 -3 0 -23 36 -45 80 -30 60 -45 80
-60 80 -11 0 -20 -2 -20 -5z"/>
<path d="M1350 1140 l0 -170 90 0 c83 0 90 1 90 20 0 18 -7 20 -70 20 l-70 0
0 150 c0 143 -1 150 -20 150 -19 0 -20 -7 -20 -170z"/>
<path d="M2078 1282 c-12 -2 -18 -13 -18 -33 0 -22 -5 -29 -20 -29 -11 0 -20
-7 -20 -15 0 -8 9 -15 20 -15 19 0 20 -7 20 -90 0 -78 3 -93 21 -111 12 -12
30 -19 46 -17 31 3 44 28 16 28 -35 0 -43 21 -43 107 l0 83 30 0 c20 0 30 5
30 15 0 10 -10 15 -29 15 -26 0 -30 4 -33 33 -2 25 -7 32 -20 29z"/>
<path d="M760 1213 c-78 -28 -103 -147 -44 -207 52 -51 146 -39 178 23 21 39
20 110 0 140 -27 38 -92 59 -134 44z m85 -48 c35 -34 35 -101 0 -139 -30 -32
-56 -33 -92 -2 -23 20 -28 32 -28 71 0 39 5 51 28 71 36 31 62 30 92 -1z"/>
<path d="M970 1121 c0 -82 3 -103 19 -122 24 -30 89 -33 120 -5 21 19 21 19
21 -2 0 -15 6 -22 20 -22 19 0 20 7 20 125 0 118 -1 125 -20 125 -18 0 -20 -7
-20 -83 0 -100 -14 -127 -65 -127 -46 0 -55 20 -55 124 0 79 -2 86 -20 86 -19
0 -20 -7 -20 -99z"/>
<path d="M1640 1213 c-78 -28 -103 -147 -44 -207 52 -51 146 -39 178 23 21 39
20 110 0 140 -27 38 -92 59 -134 44z m85 -48 c35 -34 35 -101 0 -139 -30 -32
-56 -33 -92 -2 -23 20 -28 32 -28 71 0 39 5 51 28 71 36 31 62 30 92 -1z"/>
<path d="M1891 1208 c-62 -33 -53 -86 19 -123 51 -26 62 -49 38 -73 -15 -15
-53 -16 -79 -2 -16 9 -19 7 -19 -9 0 -15 9 -22 34 -27 46 -8 88 7 106 38 21
38 1 73 -55 100 -47 23 -57 46 -30 68 9 7 27 10 45 7 26 -6 50 7 37 19 -12 12
-74 13 -96 2z"/>
</g>
</svg>
