<?xml version="1.0" standalone="no"?>
<!DOCTYPE svg PUBLIC "-//W3C//DTD SVG 20010904//EN"
 "http://www.w3.org/TR/2001/REC-SVG-20010904/DTD/svg10.dtd">
<svg version="1.0" xmlns="http://www.w3.org/2000/svg"
 width="500.000000pt" height="500.000000pt" viewBox="0 0 500.000000 500.000000"
 preserveAspectRatio="xMidYMid meet">
<metadata>
Created by potrace 1.16, written by Peter Selinger 2001-2019
</metadata>
<g transform="translate(0.000000,500.000000) scale(0.100000,-0.100000)"
fill="#000000" stroke="none">
<path d="M1387 4333 c-4 -3 -7 -111 -7 -240 l0 -233 45 0 45 0 0 190 0 190
905 0 905 0 0 -1790 0 -1790 -1350 0 -1350 0 0 -155 0 -155 1940 0 1940 0 0
155 0 155 -480 0 -480 0 0 1840 0 1840 -1053 0 c-580 0 -1057 -3 -1060 -7z"/>
</g>
</svg>
